<?xml version="1.0" encoding="utf-8"?>
<!-- Generator: Adobe Illustrator 16.0.4, SVG Export Plug-In . SVG Version: 6.00 Build 0)  -->
<!DOCTYPE svg PUBLIC "-//W3C//DTD SVG 1.1//EN" "http://www.w3.org/Graphics/SVG/1.1/DTD/svg11.dtd">
<svg version="1.1" id="レイヤー_1" xmlns="http://www.w3.org/2000/svg" xmlns:xlink="http://www.w3.org/1999/xlink" x="0px"
	 y="0px" width="720px" height="180px" viewBox="0 0 720 180" enable-background="new 0 0 720 180" xml:space="preserve">
<g>
	<path fill="#DD960F" d="M-1080.526,351.084c-49.945,0-90.436,40.488-90.436,90.434c0,49.947,40.49,90.436,90.436,90.436
		c49.946,0,90.437-40.488,90.437-90.436C-990.089,391.572-1030.58,351.084-1080.526,351.084z M-1080.526,527.953
		c-47.661,0-86.436-38.775-86.436-86.436s38.774-86.434,86.436-86.434s86.437,38.773,86.437,86.434
		S-1032.865,527.953-1080.526,527.953z"/>
	<path fill="#DD960F" d="M-1023.832,441.518c0-3.375-0.312-6.674-0.877-9.885l22.555-14.973
		c-3.643-11.49-9.736-21.889-17.676-30.578l-24.229,12.039c-5.037-4.236-10.816-7.617-17.123-9.906l-1.686-26.98
		c-5.69-1.246-11.595-1.922-17.659-1.922s-11.969,0.676-17.66,1.922l-1.687,26.98c-6.306,2.289-12.085,5.67-17.121,9.906
		l-24.228-12.037c-7.939,8.688-14.033,19.086-17.675,30.576l22.554,14.973c-0.565,3.211-0.877,6.51-0.877,9.885
		c0,3.373,0.312,6.672,0.877,9.885l-22.554,14.971c3.642,11.491,9.735,21.891,17.674,30.578l24.229-12.039
		c5.036,4.238,10.815,7.619,17.122,9.908l1.687,26.98c5.69,1.246,11.595,1.922,17.659,1.922s11.969-0.676,17.659-1.922l1.687-26.98
		c6.307-2.289,12.087-5.67,17.124-9.908l24.229,12.039c7.938-8.688,14.031-19.087,17.674-30.578l-22.555-14.973
		C-1024.144,448.189-1023.832,444.891-1023.832,441.518z M-1080.526,464.195c-12.525,0-22.678-10.152-22.678-22.678
		c0-12.523,10.152-22.678,22.678-22.678c12.523,0,22.678,10.154,22.678,22.678C-1057.848,454.043-1068.002,464.195-1080.526,464.195
		z"/>
</g>
<g>
	<g>
		<polygon fill="#DD960F" points="-816.018,228.188 -861.373,228.188 -855.703,137.479 -821.688,137.479 		"/>
		<polygon fill="#DD960F" points="-861.373,228.188 -816.018,228.188 -821.688,318.897 -855.703,318.897 		"/>
	</g>
	<g>
		<polygon fill="#DD960F" points="-827.355,208.549 -850.033,247.828 -925.756,197.563 -908.748,168.104 		"/>
		<polygon fill="#DD960F" points="-850.033,247.828 -827.355,208.549 -751.635,258.813 -768.643,288.272 		"/>
	</g>
	<g>
		<polygon fill="#DD960F" points="-850.035,208.549 -827.355,247.828 -908.748,288.272 -925.756,258.813 		"/>
		<polygon fill="#DD960F" points="-827.355,247.828 -850.035,208.549 -768.643,168.104 -751.635,197.563 		"/>
	</g>
	<circle fill="#FFFFFF" cx="-838.694" cy="228.188" r="22.678"/>
</g>
<g>
	<path fill="#DD960F" d="M-1080.525,141.479c47.811,0,86.708,38.897,86.708,86.709c0,47.811-38.897,86.708-86.708,86.708
		c-47.812,0-86.709-38.897-86.709-86.708C-1167.234,180.377-1128.337,141.479-1080.525,141.479 M-1080.525,137.479
		c-50.096,0-90.709,40.611-90.709,90.709c0,50.097,40.613,90.708,90.709,90.708c50.097,0,90.708-40.611,90.708-90.708
		C-989.817,178.091-1030.428,137.479-1080.525,137.479L-1080.525,137.479z"/>
</g>
<path fill="#DD960F" d="M-747.986,441.245c0,50.097-40.613,90.708-90.711,90.708c-50.096,0-90.707-40.611-90.707-90.708"/>
<g>
	<path fill="#DD960F" d="M-875.868-50.899c0-0.015,0.001-0.03,0.001-0.045h-0.002c-0.05-3.821-1.04-7.683-3.039-11.5
		c-10.77-20.561-49.044-33.855-87.668-33.855c-38.622,0-76.897,13.294-87.665,33.854c-2.003,3.824-2.995,7.695-3.041,11.523
		c0-0.008-0.001-0.017-0.001-0.025l-0.002,0c0,50.097,40.61,90.708,90.706,90.708c50.066,0,90.657-40.561,90.711-90.61
		C-875.868-50.865-875.867-50.882-875.868-50.899z M-1050.364-62.444c9.877-19.73,46.599-32.649,83.789-32.649
		s73.912,12.919,83.789,32.649c12.923,25.815-22.812,53.534-83.79,53.535C-1027.554-8.91-1063.287-36.63-1050.364-62.444z"/>
	<path fill="#DD960F" d="M-1036.24-31.645l29.416-7.616c5.084,2.612,11.231,4.75,18.2,6.223l-0.042,19.21
		c7.051,0.978,14.452,1.513,22.091,1.512c7.638,0,15.04-0.534,22.09-1.512l-0.043-19.21c6.969-1.474,13.117-3.61,18.202-6.223
		l29.416,7.616c6.902-5.556,10.993-11.81,11.994-18.263l-26.011-7.767c0.046-1.58-0.169-3.173-0.692-4.77
		c-0.515-1.569-1.308-3.076-2.311-4.514l18.375-6.392c-5.279-4.575-12.198-8.49-20.1-11.609l-19.406,4.358
		c-4.637-1.564-9.762-2.789-15.201-3.606l-2.342-8.991c-4.529-0.389-9.194-0.598-13.973-0.599c-4.777,0.001-9.442,0.21-13.973,0.599
		l-2.342,8.991c-5.439,0.818-10.563,2.042-15.2,3.606l-19.406-4.359c-7.902,3.119-14.818,7.035-20.098,11.61l18.372,6.391
		c-1.003,1.44-1.793,2.946-2.309,4.514c-0.525,1.598-0.74,3.191-0.692,4.771l-26.012,7.766
		C-1047.234-43.453-1043.143-37.2-1036.24-31.645z M-988.558-62.444c0.746-5.679,10.566-10.005,21.983-10.006
		c11.414,0,21.236,4.327,21.982,10.005c0.8,6.091-9.021,11.364-21.984,11.364C-979.541-51.082-989.359-56.354-988.558-62.444z"/>
</g>
<line fill="none" x1="-270.604" y1="284.224" x2="-213.911" y2="284.224"/>
<g>
	<g>
		<path fill="#DD960F" d="M-454.246,215.926l20.764-20.714c6.732-0.129,14.498-1.641,22.741-4.567l9.108,16.177
			c5.893-2.494,11.835-5.44,17.73-8.842c5.893-3.402,11.414-7.076,16.521-10.931l-9.456-15.978
			c6.654-5.675,11.849-11.646,15.326-17.408l28.32-7.627c2.784-7.415,3.31-14.183,1.556-19.875l-25.982,6.303
			c-0.745-1.793-1.854-3.41-3.357-4.811c-1.47-1.37-3.243-2.462-5.245-3.307l12.964-14.593c-6.289-1.178-13.483-1.199-21.112-0.213
			l-14.332,13.525c-5.806,1.006-12.031,2.837-18.332,5.425l-6.141-6.939c-3.785,1.804-7.595,3.8-11.395,5.994
			c-3.803,2.194-7.436,4.496-10.891,6.872l2.939,8.788c-5.392,4.163-10.09,8.639-13.862,13.162l-18.881,5.651
			c-4.668,6.112-8.247,12.354-10.372,18.389l19.119-3.929c-0.268,2.155-0.208,4.237,0.244,6.195c0.46,2.002,1.306,3.771,2.485,5.314
			l-18.448,19.348C-468.182,211.698-462.061,214.628-454.246,215.926z M-427.683,166.166c-2.254-5.303,4.076-14.01,14.01-19.745
			c9.936-5.736,20.642-6.865,24.107-2.262c3.702,4.916-2.181,14.391-13.373,20.854C-414.131,171.474-425.276,171.83-427.683,166.166
			z"/>
		<path fill="#DD960F" d="M-324.418,119.607c-0.084-0.148-0.164-0.298-0.249-0.446l-0.002,0.001
			c0.035,0.059,0.062,0.122,0.097,0.181c-1.835-3.156-4.43-5.921-7.814-8.196c-19.301-12.969-59.506-5.545-93.514,14.09
			c-34.009,19.634-60.543,50.742-58.961,73.941c0.272,3.992,1.335,7.562,3.091,10.686l-0.01,0.005c0.079,0.135,0.16,0.267,0.239,0.4
			c0.063,0.111,0.128,0.221,0.194,0.33c25.248,42.817,80.337,57.379,123.476,32.473c43.149-24.912,58.083-79.919,33.604-123.198
			C-324.316,119.785-324.367,119.696-324.418,119.607z M-481.288,197.115c-1.912-22.004,23.339-51.851,56.048-70.736
			c32.707-18.883,71.182-25.829,89.28-13.169c23.286,16.288,5.621,57.663-46.288,87.634
			C-434.161,230.815-478.825,225.424-481.288,197.115z M-325.58,150.274c-0.001,0.004-0.003,0.01-0.007,0.015
			C-325.583,150.284-325.581,150.278-325.58,150.274z M-430.631,223.298c0.026-0.005,0.051-0.009,0.077-0.015
			C-430.58,223.289-430.604,223.293-430.631,223.298z M-323.563,121.284c-0.039-0.084-0.074-0.17-0.113-0.255
			C-323.638,121.113-323.603,121.199-323.563,121.284z"/>
	</g>
	<circle fill="none" cx="-403.223" cy="164.516" r="90.709"/>
</g>
<text transform="matrix(1 0 0 1 917.6504 473.1289)" font-family="'PTSans-Regular'" font-size="89.1553">Mikan Labs</text>
<g>
	<g>
		<g>
			<path fill="#DD960F" d="M65.732-101.97l15.798-15.76c5.121-0.098,11.03-1.248,17.3-3.474l6.931,12.308
				c4.483-1.898,9.003-4.14,13.487-6.728c4.483-2.588,8.685-5.384,12.569-8.315l-7.193-12.156
				c5.062-4.317,9.015-8.859,11.659-13.243l21.545-5.803c2.12-5.641,2.519-10.79,1.184-15.12l-19.768,4.794
				c-0.566-1.364-1.409-2.594-2.552-3.66c-1.12-1.042-2.47-1.872-3.991-2.515l9.862-11.103c-4.784-0.896-10.259-0.911-16.062-0.162
				l-10.904,10.292c-4.418,0.764-9.152,2.157-13.945,4.126l-4.674-5.279c-2.879,1.372-5.777,2.891-8.668,4.561
				c-2.893,1.668-5.655,3.419-8.284,5.228l2.235,6.686c-4.102,3.167-7.677,6.572-10.546,10.014l-14.364,4.299
				c-3.55,4.65-6.274,9.399-7.891,13.99l14.545-2.989c-0.203,1.639-0.158,3.223,0.188,4.713c0.349,1.523,0.992,2.869,1.889,4.043
				l-14.034,14.719C55.132-105.186,59.788-102.958,65.732-101.97z M85.941-139.826c-1.715-4.034,3.102-10.658,10.658-15.021
				c7.561-4.364,15.705-5.223,18.341-1.721c2.817,3.74-1.658,10.949-10.173,15.864C96.252-135.788,87.771-135.517,85.941-139.826z"
				/>
			<path fill="#DD960F" d="M164.505-175.247c-0.066-0.113-0.127-0.227-0.19-0.339h-0.003c0.026,0.044,0.048,0.093,0.075,0.137
				c-1.396-2.401-3.371-4.505-5.945-6.235c-14.684-9.866-45.271-4.218-71.144,10.72c-25.873,14.937-46.061,38.603-44.855,56.253
				c0.207,3.037,1.015,5.753,2.351,8.13l-0.009,0.003c0.062,0.103,0.124,0.204,0.184,0.305c0.049,0.085,0.099,0.168,0.147,0.252
				c19.208,32.573,61.118,43.651,93.938,24.703c32.826-18.952,44.187-60.799,25.565-93.725
				C164.581-175.112,164.542-175.179,164.505-175.247z M45.16-116.281c-1.454-16.739,17.755-39.447,42.639-53.814
				c24.885-14.366,54.154-19.649,67.924-10.018c17.715,12.391,4.275,43.868-35.215,66.669
				C81.014-90.643,47.035-94.744,45.16-116.281z M163.619-151.917c-0.002,0.004-0.002,0.009-0.005,0.012
				C163.617-151.908,163.617-151.913,163.619-151.917z M83.699-96.362c0.02-0.003,0.037-0.006,0.059-0.011
				C83.736-96.368,83.719-96.365,83.699-96.362z M165.152-173.972c-0.03-0.064-0.055-0.129-0.085-0.194
				C165.098-174.101,165.122-174.036,165.152-173.972z"/>
		</g>
	</g>
	<g>
		<path d="M237.682-136.623l0.584-6.144h-0.292l-2.224,5.617l-10.65,18.492h-1.463l-11.295-18.55l-2.105-5.559h-0.293l0.819,6.086
			v27.562h-4.563v-40.963h3.628l12.815,20.95l1.93,4.565h0.118l1.814-4.682l12.229-20.833h3.804v40.963h-4.856V-136.623z"/>
		<path d="M252.018-147.273c0-0.896,0.301-1.667,0.906-2.312c0.604-0.644,1.375-0.965,2.312-0.965c0.936,0,1.735,0.322,2.399,0.965
			c0.662,0.644,0.994,1.415,0.994,2.312c0,0.898-0.332,1.639-0.994,2.224c-0.664,0.585-1.464,0.878-2.399,0.878
			c-0.937,0-1.708-0.293-2.312-0.878C252.318-145.634,252.018-146.375,252.018-147.273z M253.012-138.378h4.682v29.259h-4.682
			V-138.378z"/>
		<path d="M275.072-122.285h-2.692v13.167h-4.681v-40.963h4.681v24.929l2.399-0.819l9.07-12.406h5.443l-8.954,11.762l-2.4,1.932
			l2.927,2.341l9.771,13.225h-5.792L275.072-122.285z"/>
		<path d="M295.259-136.213c1.482-0.897,3.21-1.56,5.18-1.99c1.97-0.429,4.027-0.644,6.174-0.644c2.028,0,3.656,0.273,4.886,0.819
			c1.229,0.546,2.166,1.258,2.81,2.136s1.071,1.844,1.287,2.897c0.214,1.053,0.321,2.106,0.321,3.16c0,2.34-0.059,4.622-0.176,6.846
			c-0.116,2.224-0.176,4.331-0.176,6.32c0,1.444,0.06,2.809,0.176,4.096c0.117,1.287,0.332,2.478,0.645,3.57h-3.453l-1.229-4.097
			h-0.293c-0.35,0.547-0.79,1.083-1.316,1.609c-0.526,0.526-1.161,0.995-1.901,1.405c-0.742,0.409-1.601,0.751-2.575,1.023
			c-0.977,0.272-2.088,0.41-3.336,0.41s-2.409-0.195-3.481-0.585c-1.073-0.389-1.999-0.945-2.779-1.667
			c-0.781-0.722-1.396-1.589-1.844-2.604c-0.448-1.014-0.673-2.165-0.673-3.453c0-1.716,0.352-3.15,1.054-4.301
			c0.701-1.15,1.687-2.067,2.955-2.75c1.268-0.682,2.788-1.17,4.563-1.463c1.775-0.293,3.735-0.439,5.881-0.439
			c0.547,0,1.084,0,1.61,0s1.062,0.04,1.609,0.117c0.116-1.17,0.176-2.224,0.176-3.16c0-2.145-0.431-3.647-1.287-4.506
			c-0.858-0.857-2.42-1.288-4.683-1.288c-0.663,0-1.375,0.051-2.136,0.151c-0.76,0.101-1.541,0.24-2.341,0.422
			c-0.8,0.181-1.562,0.401-2.282,0.662c-0.722,0.261-1.356,0.552-1.901,0.873L295.259-136.213z M303.569-112.747
			c1.092,0,2.066-0.146,2.925-0.439c0.859-0.292,1.6-0.663,2.225-1.112c0.624-0.448,1.141-0.945,1.55-1.492
			c0.411-0.546,0.713-1.073,0.908-1.58v-4.857c-0.547-0.038-1.104-0.067-1.668-0.088c-0.566-0.019-1.121-0.029-1.668-0.029
			c-1.21,0-2.391,0.068-3.54,0.205c-1.152,0.137-2.165,0.391-3.043,0.761c-0.879,0.371-1.58,0.877-2.106,1.521
			c-0.527,0.645-0.79,1.455-0.79,2.429c0,1.366,0.486,2.487,1.463,3.365C300.798-113.186,302.047-112.747,303.569-112.747z"/>
		<path d="M343.536-109.119v-16.678c0-3.043-0.439-5.334-1.316-6.876c-0.878-1.541-2.487-2.312-4.828-2.312
			c-2.068,0-3.774,0.556-5.12,1.668c-1.347,1.111-2.292,2.507-2.839,4.184v20.014h-4.681v-29.259h3.277l0.877,3.57h0.234
			c0.936-1.248,2.194-2.272,3.774-3.073c1.579-0.799,3.462-1.199,5.647-1.199c1.599,0,3.002,0.186,4.213,0.556
			c1.208,0.371,2.214,1.024,3.014,1.96c0.799,0.937,1.403,2.195,1.814,3.774c0.408,1.58,0.613,3.58,0.613,5.999v17.672H343.536z"/>
		<path d="M397.081-109.119h-24.228v-40.963h4.857v36.633h19.37V-109.119z"/>
		<path d="M402.17-136.213c1.482-0.897,3.21-1.56,5.18-1.99c1.971-0.429,4.027-0.644,6.175-0.644c2.027,0,3.656,0.273,4.886,0.819
			c1.228,0.546,2.165,1.258,2.809,2.136s1.072,1.844,1.287,2.897c0.214,1.053,0.322,2.106,0.322,3.16c0,2.34-0.06,4.622-0.176,6.846
			c-0.117,2.224-0.176,4.331-0.176,6.32c0,1.444,0.059,2.809,0.176,4.096c0.116,1.287,0.331,2.478,0.644,3.57h-3.452l-1.229-4.097
			h-0.294c-0.35,0.547-0.79,1.083-1.316,1.609c-0.525,0.526-1.161,0.995-1.901,1.405c-0.742,0.409-1.601,0.751-2.574,1.023
			c-0.977,0.272-2.088,0.41-3.336,0.41c-1.249,0-2.41-0.195-3.482-0.585c-1.073-0.389-1.999-0.945-2.779-1.667
			c-0.781-0.722-1.395-1.589-1.844-2.604c-0.447-1.014-0.673-2.165-0.673-3.453c0-1.716,0.352-3.15,1.054-4.301
			c0.701-1.15,1.687-2.067,2.955-2.75c1.268-0.682,2.788-1.17,4.564-1.463c1.774-0.293,3.734-0.439,5.881-0.439
			c0.547,0,1.083,0,1.61,0c0.525,0,1.062,0.04,1.608,0.117c0.117-1.17,0.176-2.224,0.176-3.16c0-2.145-0.43-3.647-1.287-4.506
			c-0.858-0.857-2.42-1.288-4.682-1.288c-0.664,0-1.376,0.051-2.137,0.151c-0.76,0.101-1.541,0.24-2.341,0.422
			c-0.8,0.181-1.561,0.401-2.282,0.662s-1.355,0.552-1.9,0.873L402.17-136.213z M410.48-112.747c1.092,0,2.067-0.146,2.926-0.439
			c0.858-0.292,1.599-0.663,2.225-1.112c0.623-0.448,1.141-0.945,1.55-1.492c0.41-0.546,0.712-1.073,0.907-1.58v-4.857
			c-0.547-0.038-1.103-0.067-1.668-0.088c-0.566-0.019-1.121-0.029-1.668-0.029c-1.21,0-2.39,0.068-3.539,0.205
			c-1.152,0.137-2.166,0.391-3.044,0.761c-0.878,0.371-1.579,0.877-2.106,1.521c-0.527,0.645-0.789,1.455-0.789,2.429
			c0,1.366,0.485,2.487,1.462,3.365C407.709-113.186,408.959-112.747,410.48-112.747z"/>
		<path d="M431.664-150.082h4.68v14.571h0.235c0.896-1.131,2.037-2.009,3.423-2.633c1.384-0.624,2.896-0.936,4.534-0.936
			c3.784,0,6.623,1.21,8.516,3.628c1.892,2.419,2.839,6.164,2.839,11.235c0,5.111-1.25,8.993-3.746,11.646
			c-2.498,2.653-6.008,3.979-10.533,3.979c-2.186,0-4.166-0.235-5.94-0.703c-1.774-0.468-3.11-0.975-4.007-1.521V-150.082z
			 M443.717-134.984c-1.95,0-3.531,0.546-4.739,1.638c-1.21,1.093-2.087,2.633-2.634,4.623v14.747
			c0.741,0.43,1.639,0.752,2.692,0.965c1.053,0.215,2.145,0.322,3.277,0.322c2.653,0,4.769-0.936,6.349-2.809
			c1.58-1.873,2.37-4.798,2.37-8.777c0-1.521-0.138-2.945-0.409-4.272c-0.273-1.326-0.702-2.458-1.288-3.394
			c-0.585-0.937-1.336-1.677-2.253-2.224C446.165-134.71,445.044-134.984,443.717-134.984z"/>
		<path d="M461.625-123.748c0-4.954,1.102-8.749,3.307-11.382c2.203-2.633,5.373-3.95,9.508-3.95c2.184,0,4.087,0.361,5.705,1.083
			c1.619,0.723,2.955,1.755,4.01,3.102c1.052,1.346,1.832,2.965,2.341,4.857c0.506,1.893,0.76,3.989,0.76,6.291
			c0,4.955-1.103,8.748-3.306,11.381c-2.205,2.634-5.375,3.95-9.51,3.95c-2.185,0-4.087-0.361-5.706-1.082
			c-1.618-0.722-2.955-1.756-4.008-3.102c-1.054-1.345-1.835-2.964-2.341-4.857C461.878-119.349,461.625-121.446,461.625-123.748z
			 M466.48-123.748c0,1.483,0.146,2.906,0.439,4.271c0.293,1.366,0.751,2.556,1.375,3.569c0.624,1.015,1.443,1.834,2.458,2.458
			c1.015,0.624,2.242,0.936,3.687,0.936c5.305,0.04,7.958-3.706,7.958-11.235c0-1.522-0.146-2.964-0.438-4.331
			c-0.292-1.365-0.752-2.555-1.376-3.569c-0.624-1.015-1.442-1.823-2.457-2.429c-1.015-0.604-2.243-0.907-3.687-0.907
			C469.134-135.022,466.48-131.277,466.48-123.748z"/>
		<path d="M508.438-133.872c-1.171-0.39-2.282-0.585-3.336-0.585c-1.678,0-3.005,0.459-3.979,1.375
			c-0.976,0.917-1.58,2.078-1.814,3.482v20.481h-4.681v-29.259h3.277l0.876,3.57h0.235c0.74-1.326,1.628-2.351,2.663-3.073
			c1.032-0.722,2.35-1.083,3.949-1.083c1.132,0,2.398,0.196,3.805,0.585L508.438-133.872z"/>
		<path d="M514.055-136.213c1.482-0.897,3.209-1.56,5.18-1.99c1.97-0.429,4.027-0.644,6.174-0.644c2.028,0,3.656,0.273,4.886,0.819
			c1.229,0.546,2.166,1.258,2.81,2.136s1.072,1.844,1.287,2.897c0.213,1.053,0.321,2.106,0.321,3.16c0,2.34-0.059,4.622-0.175,6.846
			c-0.117,2.224-0.176,4.331-0.176,6.32c0,1.444,0.059,2.809,0.176,4.096c0.116,1.287,0.331,2.478,0.643,3.57h-3.452l-1.228-4.097
			h-0.294c-0.351,0.547-0.79,1.083-1.317,1.609c-0.525,0.526-1.16,0.995-1.9,1.405c-0.742,0.409-1.601,0.751-2.574,1.023
			c-0.977,0.272-2.089,0.41-3.336,0.41c-1.25,0-2.41-0.195-3.482-0.585c-1.073-0.389-2-0.945-2.779-1.667
			c-0.781-0.722-1.396-1.589-1.844-2.604c-0.448-1.014-0.673-2.165-0.673-3.453c0-1.716,0.351-3.15,1.054-4.301
			c0.701-1.15,1.687-2.067,2.955-2.75c1.268-0.682,2.788-1.17,4.564-1.463c1.774-0.293,3.734-0.439,5.88-0.439
			c0.547,0,1.084,0,1.61,0c0.525,0,1.062,0.04,1.609,0.117c0.116-1.17,0.176-2.224,0.176-3.16c0-2.145-0.43-3.647-1.287-4.506
			c-0.859-0.857-2.42-1.288-4.683-1.288c-0.663,0-1.376,0.051-2.136,0.151c-0.76,0.101-1.541,0.24-2.341,0.422
			c-0.8,0.181-1.562,0.401-2.282,0.662c-0.723,0.261-1.355,0.552-1.901,0.873L514.055-136.213z M522.365-112.747
			c1.092,0,2.066-0.146,2.926-0.439c0.857-0.292,1.599-0.663,2.224-1.112c0.624-0.448,1.142-0.945,1.55-1.492
			c0.41-0.546,0.713-1.073,0.908-1.58v-4.857c-0.547-0.038-1.104-0.067-1.668-0.088c-0.566-0.019-1.121-0.029-1.668-0.029
			c-1.21,0-2.391,0.068-3.54,0.205c-1.151,0.137-2.165,0.391-3.043,0.761c-0.879,0.371-1.58,0.877-2.106,1.521
			c-0.527,0.645-0.79,1.455-0.79,2.429c0,1.366,0.486,2.487,1.463,3.365C519.594-113.186,520.843-112.747,522.365-112.747z"/>
		<path d="M539.686-138.378h4.563v-5.793l4.683-1.346v7.139h7.959v4.097h-7.959v16.209c0,2.029,0.252,3.462,0.76,4.3
			c0.508,0.84,1.365,1.258,2.576,1.258c1.013,0,1.871-0.107,2.574-0.322c0.702-0.213,1.482-0.498,2.341-0.849l1.052,3.57
			c-1.052,0.507-2.203,0.917-3.452,1.229c-1.248,0.312-2.594,0.468-4.037,0.468c-2.38,0-4.058-0.672-5.033-2.019
			s-1.463-3.599-1.463-6.759v-17.087h-4.563V-138.378z"/>
		<path d="M561.746-123.748c0-4.954,1.102-8.749,3.307-11.382c2.203-2.633,5.373-3.95,9.509-3.95c2.184,0,4.087,0.361,5.705,1.083
			c1.618,0.723,2.955,1.755,4.009,3.102c1.053,1.346,1.832,2.965,2.342,4.857c0.506,1.893,0.76,3.989,0.76,6.291
			c0,4.955-1.104,8.748-3.307,11.381c-2.205,2.634-5.375,3.95-9.509,3.95c-2.185,0-4.088-0.361-5.706-1.082
			c-1.619-0.722-2.955-1.756-4.008-3.102c-1.054-1.345-1.835-2.964-2.341-4.857C561.999-119.349,561.746-121.446,561.746-123.748z
			 M566.603-123.748c0,1.483,0.146,2.906,0.438,4.271c0.294,1.366,0.752,2.556,1.376,3.569c0.624,1.015,1.442,1.834,2.458,2.458
			c1.014,0.624,2.242,0.936,3.687,0.936c5.305,0.04,7.958-3.706,7.958-11.235c0-1.522-0.146-2.964-0.439-4.331
			c-0.292-1.365-0.751-2.555-1.375-3.569c-0.624-1.015-1.443-1.823-2.458-2.429c-1.015-0.604-2.242-0.907-3.686-0.907
			C569.256-135.022,566.603-131.277,566.603-123.748z"/>
		<path d="M608.56-133.872c-1.17-0.39-2.282-0.585-3.336-0.585c-1.678,0-3.004,0.459-3.979,1.375
			c-0.975,0.917-1.579,2.078-1.813,3.482v20.481h-4.681v-29.259h3.276l0.877,3.57h0.235c0.74-1.326,1.628-2.351,2.662-3.073
			c1.033-0.722,2.35-1.083,3.95-1.083c1.131,0,2.398,0.196,3.804,0.585L608.56-133.872z"/>
		<path d="M614.646-147.273c0-0.896,0.301-1.667,0.906-2.312c0.604-0.644,1.376-0.965,2.312-0.965s1.735,0.322,2.4,0.965
			c0.662,0.644,0.993,1.415,0.993,2.312c0,0.898-0.331,1.639-0.993,2.224c-0.665,0.585-1.465,0.878-2.4,0.878
			s-1.707-0.293-2.312-0.878C614.946-145.634,614.646-146.375,614.646-147.273z M615.641-138.378h4.681v29.259h-4.681V-138.378z"/>
		<path d="M651.686-111.46c-1.17,0.937-2.643,1.678-4.417,2.224c-1.776,0.546-3.658,0.819-5.647,0.819
			c-2.223,0-4.155-0.361-5.794-1.082c-1.638-0.722-2.984-1.756-4.037-3.102c-1.054-1.345-1.835-2.955-2.341-4.827
			c-0.508-1.873-0.76-3.979-0.76-6.32c0-4.994,1.111-8.797,3.334-11.412c2.225-2.613,5.402-3.92,9.538-3.92
			c1.327,0,2.653,0.146,3.979,0.438c1.326,0.293,2.517,0.849,3.57,1.668c1.053,0.819,1.912,1.98,2.574,3.482
			c0.664,1.502,0.995,3.482,0.995,5.94c0,1.287-0.116,2.712-0.351,4.271h-18.785c0,1.717,0.176,3.239,0.527,4.565
			s0.896,2.448,1.639,3.364c0.74,0.917,1.705,1.619,2.896,2.106c1.19,0.488,2.644,0.731,4.36,0.731c1.325,0,2.653-0.234,3.979-0.702
			c1.325-0.469,2.32-1.015,2.985-1.639L651.686-111.46z M641.621-134.984c-2.302,0-4.146,0.605-5.529,1.814
			c-1.386,1.21-2.215,3.277-2.487,6.203h14.513c0-2.964-0.566-5.042-1.697-6.232C645.287-134.389,643.688-134.984,641.621-134.984z"
			/>
		<path d="M672.927-117.077c0-1.17-0.35-2.086-1.053-2.75c-0.702-0.663-1.571-1.219-2.604-1.668
			c-1.034-0.448-2.165-0.877-3.396-1.287c-1.228-0.41-2.36-0.937-3.393-1.58c-1.034-0.644-1.902-1.472-2.604-2.487
			c-0.703-1.014-1.055-2.379-1.055-4.096c0-2.809,0.8-4.866,2.4-6.173c1.599-1.307,3.822-1.96,6.67-1.96
			c2.106,0,3.871,0.186,5.297,0.556c1.423,0.371,2.662,0.81,3.715,1.317l-1.111,3.862c-0.898-0.428-1.98-0.809-3.248-1.141
			c-1.269-0.331-2.624-0.498-4.067-0.498c-1.718,0-2.975,0.293-3.774,0.877c-0.8,0.585-1.199,1.601-1.199,3.043
			c0,1.015,0.352,1.805,1.053,2.371c0.703,0.565,1.571,1.073,2.604,1.521c1.034,0.449,2.165,0.888,3.395,1.316
			c1.229,0.43,2.359,0.995,3.394,1.698c1.034,0.702,1.902,1.59,2.604,2.662c0.703,1.074,1.055,2.487,1.055,4.243
			c0,1.249-0.206,2.419-0.614,3.511c-0.411,1.092-1.044,2.029-1.903,2.809c-0.858,0.781-1.92,1.396-3.188,1.844
			c-1.27,0.448-2.762,0.672-4.478,0.672c-2.224,0-4.117-0.214-5.677-0.644c-1.56-0.429-2.866-0.936-3.92-1.521l1.404-3.979
			c0.896,0.507,2.067,0.976,3.511,1.404c1.442,0.43,2.905,0.644,4.39,0.644c1.676,0,3.062-0.331,4.153-0.995
			C672.38-114.17,672.927-115.36,672.927-117.077z"/>
	</g>
</g>
<text transform="matrix(1 0 0 1 749.0879 127.4478)"><tspan x="0" y="0" font-family="'PTSans-Regular'" font-size="89.1553" letter-spacing="-4">Mikan </tspan><tspan x="228.232" y="0" font-family="'PTSans-Regular'" font-size="89.1553" letter-spacing="-1">L</tspan><tspan x="272.898" y="0" font-family="'PTSans-Regular'" font-size="89.1553" letter-spacing="-4">abs</tspan></text>
<text transform="matrix(1 0 0 1 749.0879 203.4473)"><tspan x="0" y="0" font-family="'PTSans-Regular'" font-size="89.1553" letter-spacing="-4">Mik</tspan><tspan x="124.279" y="0" font-family="'PTSans-Regular'" font-size="89.1553" letter-spacing="-5">a</tspan><tspan x="162.793" y="0" font-family="'PTSans-Regular'" font-size="89.1553" letter-spacing="-4">n </tspan><tspan x="226.805" y="0" font-family="'PTSans-Regular'" font-size="89.1553" letter-spacing="-1">L</tspan><tspan x="271.473" y="0" font-family="'PTSans-Regular'" font-size="89.1553" letter-spacing="-5">a</tspan><tspan x="309.986" y="0" font-family="'PTSans-Regular'" font-size="89.1553" letter-spacing="-4">bs</tspan></text>
<g>
	<path d="M836.453,227.598l0.888-9.334h-0.443l-3.379,8.533l-16.179,28.09h-2.222l-17.155-28.178l-3.199-8.445h-0.443l1.243,9.244
		v41.867h-6.934v-62.223h5.511l19.467,31.822l2.935,6.934h0.177l2.756-7.111l18.577-31.645h5.777v62.223h-7.376V227.598z"/>
	<path d="M853.963,211.42c0-1.363,0.458-2.533,1.377-3.512s2.089-1.467,3.511-1.467c1.424,0,2.637,0.488,3.645,1.467
		c1.007,0.979,1.512,2.148,1.512,3.512s-0.505,2.488-1.512,3.377c-1.008,0.889-2.221,1.334-3.645,1.334
		c-1.422,0-2.592-0.445-3.511-1.334S853.963,212.783,853.963,211.42z M855.475,224.93h7.108v44.445h-7.108V224.93z"/>
	<path d="M884.717,249.375h-4.09v20h-7.109v-62.223h7.109v37.867l3.646-1.244l13.776-18.846h8.269l-13.602,17.867l-3.644,2.934
		l4.443,3.557l14.845,20.088h-8.8L884.717,249.375z"/>
	<path d="M911.115,228.219c2.252-1.361,4.875-2.369,7.868-3.021c2.99-0.65,6.118-0.979,9.378-0.979c3.08,0,5.556,0.416,7.421,1.244
		c1.867,0.832,3.289,1.912,4.266,3.244c0.979,1.334,1.631,2.801,1.956,4.402c0.324,1.6,0.49,3.199,0.49,4.799
		c0,3.557-0.089,7.023-0.267,10.4c-0.18,3.377-0.267,6.578-0.267,9.6c0,2.193,0.087,4.268,0.267,6.223
		c0.178,1.955,0.502,3.764,0.978,5.422h-5.246l-1.865-6.223h-0.444c-0.533,0.83-1.201,1.645-2,2.443
		c-0.8,0.801-1.764,1.512-2.89,2.135c-1.125,0.621-2.43,1.141-3.91,1.557c-1.481,0.412-3.172,0.621-5.066,0.621
		c-1.899,0-3.661-0.297-5.289-0.889c-1.632-0.592-3.037-1.438-4.224-2.533s-2.119-2.414-2.8-3.955
		c-0.682-1.541-1.021-3.289-1.021-5.246c0-2.605,0.532-4.785,1.6-6.533c1.066-1.746,2.562-3.141,4.488-4.176
		c1.926-1.037,4.237-1.779,6.934-2.223c2.695-0.445,5.673-0.668,8.933-0.668c0.829,0,1.646,0,2.446,0c0.8,0,1.614,0.061,2.443,0.178
		c0.178-1.777,0.268-3.377,0.268-4.799c0-3.26-0.653-5.541-1.956-6.844c-1.305-1.305-3.674-1.957-7.111-1.957
		c-1.009,0-2.09,0.076-3.244,0.229c-1.156,0.154-2.343,0.367-3.556,0.641c-1.215,0.275-2.371,0.609-3.466,1.006
		c-1.099,0.396-2.061,0.838-2.891,1.326L911.115,228.219z M923.738,263.863c1.657,0,3.141-0.221,4.443-0.666s2.43-1.008,3.379-1.689
		c0.946-0.68,1.732-1.436,2.356-2.268c0.621-0.828,1.078-1.629,1.376-2.398v-7.377c-0.829-0.061-1.675-0.104-2.533-0.135
		c-0.858-0.029-1.704-0.043-2.533-0.043c-1.836,0-3.63,0.104-5.379,0.311s-3.287,0.592-4.621,1.154
		c-1.333,0.564-2.4,1.334-3.201,2.312c-0.798,0.977-1.199,2.207-1.199,3.688c0,2.076,0.74,3.779,2.222,5.111
		C919.53,263.197,921.427,263.863,923.738,263.863z"/>
	<path d="M978.758,269.375v-25.334c0-4.621-0.665-8.102-1.999-10.443s-3.778-3.512-7.334-3.512c-3.14,0-5.732,0.844-7.777,2.533
		c-2.044,1.689-3.481,3.809-4.312,6.355v30.4h-7.111V224.93h4.978l1.334,5.424h0.356c1.422-1.896,3.331-3.453,5.732-4.668
		c2.399-1.213,5.258-1.822,8.578-1.822c2.428,0,4.562,0.281,6.4,0.846c1.835,0.564,3.361,1.555,4.577,2.977
		c1.214,1.424,2.134,3.334,2.755,5.734c0.623,2.398,0.935,5.438,0.935,9.111v26.844H978.758z"/>
	<path d="M1051.558,269.375h-36.8v-62.223h7.378v55.645h29.422V269.375z"/>
	<path d="M1057.869,228.219c2.251-1.361,4.873-2.369,7.866-3.021c2.991-0.65,6.119-0.979,9.379-0.979
		c3.08,0,5.556,0.416,7.421,1.244c1.867,0.832,3.289,1.912,4.267,3.244c0.978,1.334,1.63,2.801,1.955,4.402
		c0.325,1.6,0.49,3.199,0.49,4.799c0,3.557-0.089,7.023-0.267,10.4c-0.179,3.377-0.267,6.578-0.267,9.6
		c0,2.193,0.088,4.268,0.267,6.223c0.178,1.955,0.503,3.764,0.979,5.422h-5.247l-1.865-6.223h-0.443
		c-0.534,0.83-1.202,1.645-2,2.443c-0.801,0.801-1.765,1.512-2.891,2.135c-1.125,0.621-2.43,1.141-3.909,1.557
		c-1.482,0.412-3.173,0.621-5.067,0.621c-1.898,0-3.661-0.297-5.288-0.889c-1.633-0.592-3.039-1.438-4.225-2.533
		s-2.118-2.414-2.8-3.955s-1.021-3.289-1.021-5.246c0-2.605,0.532-4.785,1.599-6.533c1.067-1.746,2.562-3.141,4.488-4.176
		c1.926-1.037,4.237-1.779,6.935-2.223c2.695-0.445,5.672-0.668,8.933-0.668c0.829,0,1.646,0,2.445,0
		c0.801,0,1.614,0.061,2.443,0.178c0.178-1.777,0.267-3.377,0.267-4.799c0-3.26-0.651-5.541-1.954-6.844
		c-1.305-1.305-3.675-1.957-7.112-1.957c-1.008,0-2.089,0.076-3.243,0.229c-1.157,0.154-2.343,0.367-3.556,0.641
		c-1.216,0.275-2.372,0.609-3.467,1.006c-1.098,0.396-2.06,0.838-2.89,1.326L1057.869,228.219z M1070.491,263.863
		c1.657,0,3.141-0.221,4.444-0.666c1.303-0.445,2.43-1.008,3.378-1.689c0.946-0.68,1.733-1.436,2.356-2.268
		c0.621-0.828,1.078-1.629,1.376-2.398v-7.377c-0.829-0.061-1.674-0.104-2.533-0.135c-0.858-0.029-1.703-0.043-2.533-0.043
		c-1.836,0-3.63,0.104-5.378,0.311c-1.749,0.207-3.287,0.592-4.621,1.154c-1.334,0.564-2.401,1.334-3.201,2.312
		c-0.799,0.977-1.2,2.207-1.2,3.688c0,2.076,0.74,3.779,2.223,5.111C1066.283,263.197,1068.18,263.863,1070.491,263.863z"/>
	<path d="M1096.979,207.152h7.111v22.133h0.356c1.361-1.717,3.094-3.051,5.199-3.998c2.103-0.949,4.398-1.424,6.89-1.424
		c5.746,0,10.057,1.838,12.932,5.512c2.874,3.676,4.311,9.363,4.311,17.066c0,7.764-1.896,13.66-5.688,17.689
		c-3.793,4.031-9.127,6.045-16,6.045c-3.319,0-6.328-0.357-9.023-1.068c-2.696-0.711-4.725-1.48-6.088-2.311V207.152z
		 M1115.29,230.086c-2.966,0-5.364,0.83-7.201,2.49c-1.838,1.658-3.17,3.998-3.999,7.02v22.4c1.125,0.654,2.488,1.143,4.089,1.467
		c1.599,0.326,3.258,0.49,4.978,0.49c4.028,0,7.244-1.424,9.645-4.268c2.399-2.844,3.599-7.289,3.599-13.334
		c0-2.311-0.208-4.473-0.621-6.488c-0.414-2.014-1.067-3.732-1.954-5.154c-0.891-1.424-2.032-2.549-3.424-3.379
		C1119.008,230.502,1117.304,230.086,1115.29,230.086z"/>
	<path d="M1160.268,257.285c0-1.777-0.534-3.17-1.602-4.176c-1.064-1.008-2.386-1.852-3.955-2.535
		c-1.571-0.68-3.289-1.332-5.154-1.955c-1.867-0.621-3.587-1.422-5.156-2.4c-1.571-0.977-2.89-2.236-3.955-3.777
		c-1.067-1.539-1.601-3.613-1.601-6.223c0-4.266,1.214-7.391,3.646-9.377c2.429-1.984,5.807-2.979,10.131-2.979
		c3.202,0,5.881,0.281,8.045,0.846s4.044,1.23,5.646,2l-1.688,5.867c-1.365-0.652-3.009-1.23-4.935-1.734
		c-1.926-0.502-3.985-0.756-6.177-0.756c-2.609,0-4.52,0.443-5.732,1.332c-1.215,0.891-1.823,2.432-1.823,4.623
		c0,1.543,0.534,2.742,1.599,3.602c1.067,0.859,2.386,1.629,3.957,2.311c1.57,0.682,3.289,1.348,5.154,2
		c1.868,0.652,3.585,1.51,5.156,2.576c1.57,1.066,2.888,2.416,3.955,4.045c1.067,1.631,1.601,3.777,1.601,6.445
		c0,1.896-0.312,3.674-0.933,5.332c-0.622,1.66-1.587,3.084-2.89,4.268c-1.305,1.186-2.919,2.119-4.845,2.801
		c-1.926,0.68-4.192,1.021-6.8,1.021c-3.377,0-6.253-0.326-8.623-0.977c-2.37-0.652-4.354-1.424-5.954-2.312l2.134-6.043
		c1.361,0.77,3.139,1.48,5.332,2.131c2.192,0.654,4.414,0.979,6.668,0.979c2.547,0,4.651-0.502,6.311-1.51
		S1160.268,259.895,1160.268,257.285z"/>
</g>
<g>
	<g>
		<g>
			<g>
				<path fill="#DD960F" d="M96.824,118.67l16.551-16.51c5.364-0.103,11.556-1.308,18.124-3.64l7.26,12.894
					c4.697-1.989,9.432-4.338,14.129-7.048c4.696-2.713,9.1-5.641,13.168-8.711L158.52,82.92c5.304-4.521,9.443-9.28,12.215-13.873
					l22.569-6.079c2.222-5.909,2.639-11.303,1.24-15.84l-20.708,5.023c-0.595-1.43-1.478-2.718-2.673-3.834
					c-1.173-1.093-2.588-1.962-4.182-2.636l10.331-11.631c-5.012-0.939-10.747-0.955-16.826-0.17l-11.423,10.781
					c-4.629,0.8-9.589,2.26-14.608,4.321l-4.896-5.53c-3.017,1.438-6.052,3.029-9.081,4.778c-3.029,1.748-5.924,3.582-8.677,5.477
					l2.341,7.004c-4.297,3.317-8.041,6.885-11.049,10.489l-15.046,4.505c-3.721,4.871-6.574,9.846-8.268,14.655l15.237-3.131
					c-0.212,1.716-0.165,3.376,0.195,4.936c0.367,1.597,1.04,3.006,1.979,4.236l-14.7,15.419
					C85.721,115.3,90.599,117.634,96.824,118.67z M117.996,79.012c-1.797-4.226,3.249-11.166,11.165-15.736
					c7.921-4.571,16.452-5.471,19.215-1.803c2.95,3.918-1.737,11.47-10.658,16.619C128.797,83.242,119.914,83.526,117.996,79.012z"
					/>
				<path fill="#DD960F" d="M200.298,41.905c-0.069-0.118-0.133-0.236-0.2-0.354h-0.002c0.028,0.046,0.049,0.097,0.079,0.144
					c-1.464-2.516-3.531-4.72-6.229-6.532c-15.382-10.335-47.426-4.419-74.529,11.229c-27.104,15.648-48.252,40.44-46.989,58.931
					c0.217,3.182,1.063,6.026,2.461,8.517l-0.008,0.003c0.066,0.108,0.131,0.214,0.191,0.319c0.051,0.089,0.104,0.177,0.156,0.264
					c20.121,34.123,64.026,45.729,98.407,25.879c34.388-19.854,46.289-63.692,26.78-98.186
					C200.378,42.047,200.338,41.977,200.298,41.905z M75.275,103.678c-1.524-17.537,18.599-41.324,44.666-56.376
					c26.069-15.05,56.732-20.584,71.155-10.494c18.559,12.98,4.481,45.956-36.889,69.842
					C112.833,130.536,77.239,126.239,75.275,103.678z M199.37,66.346c-0.001,0.005-0.001,0.009-0.005,0.014
					C199.369,66.354,199.369,66.351,199.37,66.346z M115.647,124.544c0.021-0.003,0.039-0.006,0.061-0.011
					C115.687,124.538,115.668,124.541,115.647,124.544z M200.976,43.241c-0.031-0.066-0.056-0.136-0.088-0.203
					C200.92,43.105,200.944,43.175,200.976,43.241z"/>
			</g>
		</g>
	</g>
	<g>
		<path d="M301.764,79.835l0.831-8.751h-0.415l-3.168,8l-15.167,26.333h-2.082L265.68,79l-3-7.916h-0.416l1.166,8.666V119h-6.5
			V60.668h5.166l18.25,29.832l2.751,6.5h0.167l2.582-6.667l17.416-29.665h5.416V119h-6.914V79.835z"/>
		<path d="M322.179,64.667c0-1.277,0.429-2.375,1.29-3.291c0.863-0.918,1.959-1.376,3.293-1.376s2.471,0.458,3.416,1.376
			c0.944,0.916,1.417,2.014,1.417,3.291c0,1.278-0.473,2.334-1.417,3.167c-0.945,0.833-2.082,1.25-3.416,1.25
			s-2.43-0.417-3.293-1.25C322.607,67.001,322.179,65.945,322.179,64.667z M323.596,77.333h6.664V119h-6.664V77.333z"/>
		<path d="M355.009,100.25h-3.834V119h-6.665V60.668h6.665v35.498L354.593,95l12.916-17.667h7.751l-12.751,16.751l-3.416,2.75
			l4.166,3.334L377.175,119h-8.249L355.009,100.25z"/>
		<path d="M383.759,80.416c2.11-1.276,4.568-2.221,7.375-2.832c2.804-0.61,5.736-0.917,8.791-0.917c2.89,0,5.208,0.389,6.958,1.166
			c1.751,0.78,3.084,1.792,3.999,3.042c0.917,1.25,1.529,2.625,1.833,4.126c0.305,1.499,0.461,2.999,0.461,4.5
			c0,3.333-0.084,6.583-0.25,9.749c-0.169,3.166-0.25,6.167-0.25,9c0,2.057,0.081,4,0.25,5.834c0.166,1.832,0.471,3.528,0.916,5.082
			h-4.919l-1.748-5.833h-0.416c-0.5,0.778-1.128,1.542-1.875,2.291c-0.751,0.75-1.654,1.417-2.71,2.001
			c-1.055,0.582-2.278,1.07-3.665,1.458c-1.39,0.388-2.975,0.583-4.751,0.583c-1.779,0-3.431-0.278-4.957-0.832
			c-1.53-0.556-2.849-1.348-3.961-2.375c-1.111-1.028-1.986-2.265-2.625-3.709c-0.637-1.444-0.957-3.083-0.957-4.917
			c0-2.443,0.499-4.485,1.5-6.125c1.001-1.638,2.402-2.944,4.208-3.916s3.973-1.667,6.5-2.084c2.526-0.417,5.317-0.625,8.374-0.625
			c0.778,0,1.543,0,2.293,0c0.751,0,1.514,0.057,2.292,0.167c0.165-1.667,0.25-3.166,0.25-4.5c0-3.056-0.612-5.194-1.834-6.416
			c-1.223-1.222-3.444-1.834-6.666-1.834c-0.945,0-1.958,0.072-3.042,0.215c-1.084,0.144-2.195,0.344-3.334,0.601
			c-1.139,0.258-2.223,0.571-3.248,0.941c-1.029,0.372-1.933,0.786-2.71,1.244L383.759,80.416z M395.592,113.834
			c1.553,0,2.944-0.209,4.166-0.625c1.221-0.418,2.278-0.944,3.167-1.585c0.887-0.637,1.625-1.345,2.208-2.125
			c0.583-0.776,1.012-1.526,1.292-2.249v-6.917c-0.778-0.055-1.57-0.097-2.376-0.124c-0.806-0.028-1.597-0.041-2.374-0.041
			c-1.722,0-3.404,0.096-5.042,0.29c-1.641,0.195-3.082,0.557-4.332,1.084c-1.251,0.528-2.252,1.25-3.002,2.168
			c-0.748,0.915-1.124,2.068-1.124,3.457c0,1.945,0.692,3.541,2.082,4.792C391.646,113.209,393.424,113.834,395.592,113.834z"/>
		<path d="M452.505,119V95.25c0-4.333-0.624-7.596-1.874-9.791c-1.25-2.194-3.542-3.292-6.876-3.292
			c-2.944,0-5.374,0.791-7.291,2.375c-1.917,1.583-3.264,3.57-4.041,5.958V119h-6.665V77.333h4.665l1.251,5.085h0.332
			c1.334-1.779,3.126-3.237,5.374-4.377c2.251-1.137,4.931-1.707,8.042-1.707c2.278,0,4.277,0.264,6,0.792
			c1.722,0.528,3.153,1.457,4.292,2.79c1.138,1.335,1.999,3.126,2.584,5.376c0.584,2.249,0.874,5.098,0.874,8.541V119H452.505z"/>
		<path d="M528.756,119h-34.501V60.668h6.919v52.165h27.582V119z"/>
		<path d="M536.004,80.416c2.11-1.276,4.569-2.221,7.375-2.832c2.805-0.61,5.736-0.917,8.793-0.917c2.888,0,5.208,0.389,6.956,1.166
			c1.752,0.78,3.085,1.792,4.001,3.042s1.527,2.625,1.833,4.126c0.304,1.499,0.46,2.999,0.46,4.5c0,3.333-0.084,6.583-0.25,9.749
			c-0.168,3.166-0.251,6.167-0.251,9c0,2.057,0.083,4,0.251,5.834c0.166,1.832,0.47,3.528,0.916,5.082h-4.919l-1.749-5.833h-0.415
			c-0.501,0.778-1.127,1.542-1.875,2.291c-0.751,0.75-1.654,1.417-2.71,2.001c-1.055,0.582-2.277,1.07-3.666,1.458
			c-1.388,0.388-2.974,0.583-4.75,0.583c-1.779,0-3.432-0.278-4.957-0.832c-1.53-0.556-2.848-1.348-3.961-2.375
			c-1.111-1.028-1.985-2.265-2.625-3.709c-0.638-1.444-0.955-3.083-0.955-4.917c0-2.443,0.498-4.485,1.498-6.125
			c1-1.638,2.402-2.944,4.207-3.916c1.807-0.972,3.974-1.667,6.503-2.084c2.525-0.417,5.316-0.625,8.371-0.625
			c0.778,0,1.544,0,2.294,0c0.751,0,1.514,0.057,2.291,0.167c0.167-1.667,0.251-3.166,0.251-4.5c0-3.056-0.612-5.194-1.834-6.416
			s-3.443-1.834-6.666-1.834c-0.946,0-1.959,0.072-3.042,0.215c-1.084,0.144-2.195,0.344-3.334,0.601
			c-1.139,0.258-2.223,0.571-3.248,0.941c-1.03,0.372-1.933,0.786-2.709,1.244L536.004,80.416z M547.838,113.834
			c1.553,0,2.944-0.209,4.166-0.625c1.221-0.418,2.278-0.944,3.166-1.585c0.889-0.637,1.625-1.345,2.21-2.125
			c0.582-0.776,1.011-1.526,1.29-2.249v-6.917c-0.777-0.055-1.569-0.097-2.375-0.124c-0.805-0.028-1.597-0.041-2.375-0.041
			c-1.721,0-3.402,0.096-5.042,0.29c-1.64,0.195-3.081,0.557-4.331,1.084c-1.251,0.528-2.252,1.25-3.002,2.168
			c-0.748,0.915-1.125,2.068-1.125,3.457c0,1.945,0.694,3.541,2.083,4.792C543.893,113.209,545.67,113.834,547.838,113.834z"/>
		<path d="M578.003,60.668h6.666v20.75h0.333c1.278-1.611,2.903-2.861,4.875-3.75c1.971-0.889,4.125-1.334,6.457-1.334
			c5.388,0,9.43,1.722,12.127,5.166c2.692,3.445,4.042,8.777,4.042,16c0,7.279-1.779,12.807-5.334,16.584
			c-3.558,3.778-8.556,5.666-14.999,5.666c-3.112,0-5.933-0.334-8.46-1.001c-2.529-0.666-4.431-1.387-5.707-2.166V60.668z
			 M595.168,82.167c-2.778,0-5.028,0.778-6.748,2.334c-1.724,1.555-2.974,3.749-3.751,6.582v21c1.055,0.612,2.334,1.07,3.833,1.375
			c1.5,0.306,3.053,0.458,4.665,0.458c3.779,0,6.793-1.333,9.043-4c2.25-2.666,3.376-6.833,3.376-12.5
			c0-2.166-0.196-4.193-0.585-6.083c-0.39-1.888-0.998-3.499-1.833-4.833c-0.832-1.333-1.903-2.388-3.208-3.166
			C598.654,82.556,597.057,82.167,595.168,82.167z"/>
		<path d="M641.334,107.666c0-1.666-0.499-2.972-1.499-3.916c-1.001-0.943-2.235-1.735-3.708-2.375
			c-1.474-0.639-3.083-1.25-4.835-1.834c-1.75-0.582-3.361-1.332-4.833-2.249c-1.473-0.916-2.707-2.097-3.709-3.542
			c-0.999-1.443-1.497-3.388-1.497-5.833c0-4,1.137-6.931,3.415-8.792c2.277-1.86,5.443-2.791,9.499-2.791
			c3,0,5.515,0.264,7.543,0.792c2.025,0.528,3.791,1.152,5.292,1.874l-1.585,5.501c-1.278-0.611-2.82-1.152-4.623-1.626
			c-1.807-0.472-3.738-0.708-5.794-0.708c-2.444,0-4.236,0.416-5.374,1.25c-1.139,0.833-1.71,2.278-1.71,4.333
			c0,1.446,0.503,2.57,1.502,3.375c1,0.807,2.236,1.528,3.709,2.168c1.47,0.639,3.082,1.263,4.833,1.874
			c1.749,0.611,3.36,1.417,4.832,2.416c1.472,1,2.709,2.265,3.709,3.792c0.999,1.529,1.499,3.542,1.499,6.041
			c0,1.778-0.289,3.445-0.875,5.001c-0.581,1.555-1.485,2.889-2.706,4c-1.224,1.111-2.737,1.985-4.543,2.625
			c-1.807,0.637-3.932,0.958-6.374,0.958c-3.167,0-5.861-0.307-8.084-0.917c-2.224-0.611-4.083-1.334-5.583-2.166l1.999-5.667
			c1.277,0.723,2.944,1.39,5.001,1.999c2.054,0.612,4.138,0.918,6.248,0.918c2.391,0,4.362-0.473,5.917-1.417
			C640.555,111.805,641.334,110.111,641.334,107.666z"/>
	</g>
</g>
</svg>
